<svg xmlns="http://www.w3.org/2000/svg" width="28.239" height="18.154" viewBox="0 0 28.239 18.154">
  <path id="Path_11" data-name="Path 11" d="M18.658,5.815a.63.63,0,0,1,1.009,0l8.32,8.32a.63.63,0,0,1,0,1.009l-8.32,8.32a.63.63,0,0,1-1.009,0l-1.261-1.2a.784.784,0,0,1-.252-.567.6.6,0,0,1,.252-.5L22.5,16.278H.756a.729.729,0,0,1-.536-.221A.729.729,0,0,1,0,15.522V13.757a.729.729,0,0,1,.221-.536A.729.729,0,0,1,.756,13H22.5L17.4,8.084a.6.6,0,0,1-.252-.5.784.784,0,0,1,.252-.567Z" transform="translate(0 -5.563)" fill="#e3345f"/>
</svg>
